# xmcd CD database file
# Generated: Sun Apr 28 19:41:36 2002 by KSCD
# 
# Track frame offsets:
#       150
#       26740
#       53437
#       80387
#       100337
#       110715
#       128562
#       162787
#       198425
#       225597
#       255717
#
# Disc length: 3785 seconds
#
# Revision: 1
# Processed by: cddbd v1.4PL0 Copyright (c) Steve Scherf et al.
# Submitted via: Kscd 1.3.2
#
DISCID=850ec70b
DTITLE=QSQT/Tejab
DYEAR=1900
DGENRE=
TTITLE0=Papa Kahte Hai
TTITLE1=Akele Hai
TTITLE2=Akele Hai
TTITLE3=Gajab Ka hai Din
TTITLE4=Kahe Ko
TTITLE5=
TTITLE6=
TTITLE7=
TTITLE8=
TTITLE9=
TTITLE10=
EXTD=This is Qayamat se Qayamat tak\nand Tejab.\n\nNice songs!
EXTT0=
EXTT1=
EXTT2=
EXTT3=
EXTT4=
EXTT5=
EXTT6=
EXTT7=
EXTT8=
EXTT9=
EXTT10=
PLAYORDER=
